<svg display="none" xmlns="http://www.w3.org/2000/svg">
    <defs>
        <symbol id="AnalyticCircleIcon" viewBox="0 0 60 60">
            <title>AnalyticCircleIcon</title>
            <g>
                <path fill-rule="evenodd" clip-rule="evenodd"
                      d="M27.8973 0.00341797C27.7361 0.00341797 27.6055 0.134078 27.6055 0.295257V4.81006C27.6006 4.81006 27.5957 4.81006 27.5908 4.81006C12.3528 4.81006 0 17.1639 0 32.4032C0 47.6425 12.3528 59.9963 27.5908 59.9963C42.8284 59.9963 55.1809 47.6431 55.1816 32.4045H59.708C59.8692 32.4045 59.9999 32.2737 59.9999 32.1125C59.9999 14.3827 45.6271 0.00341797 27.8973 0.00341797ZM41.3862 32.4045H55.1816C55.1816 32.404 55.1816 32.4036 55.1816 32.4032C55.1816 17.1688 42.8367 4.81799 27.6055 4.81006V18.6066C27.6006 18.6066 27.5957 18.6066 27.5908 18.6066C19.9718 18.6066 13.7954 24.7836 13.7954 32.4032C13.7954 40.0228 19.9718 46.1998 27.5908 46.1998C35.2094 46.1998 41.3855 40.0235 41.3862 32.4045ZM41.3862 32.4045H28.3554C27.9412 32.4045 27.6055 32.0687 27.6055 31.6546V18.6066C35.2177 18.6146 41.3862 24.7885 41.3862 32.4032C41.3862 32.4036 41.3862 32.404 41.3862 32.4045Z"
                      fill="#A59DFF"/>
            </g>
        </symbol>
        <symbol id="ChatIcon" viewBox="0 0 60 60">
            <title>ChatIcon</title>
            <g>
                <path fill-rule="evenodd" clip-rule="evenodd" d="M15 0H60V40.5L50.3165 30.75H45V19.5H15V0ZM15 19.5H0V60L9.68354 50.25H45V30.75H15V19.5Z"
                      fill="#A59DFF"/>
            </g>
        </symbol>
        <symbol id="DocumentsSquareIcon" viewBox="0 0 60 60">
            <title>DocumentsSquareIcon</title>
            <g>
                <path fill-rule="evenodd" clip-rule="evenodd" d="M0 60L-1.31134e-06 30L8.25 30L8.25 51.75L30 51.75L30 60L0 60ZM30 43.5L30 51.75L38.25 51.75L38.25 43.5L60 43.5L60 -2.62268e-06L16.5 -7.21238e-07L16.5 21.75L8.25 21.75L8.25 30L16.5 30L16.5 43.5L30 43.5ZM16.5 30L30 30L30 43.5L38.25 43.5L38.25 21.75L16.5 21.75L16.5 30Z"
                      fill="#A59DFF"/>
            </g>
        </symbol>
        <symbol id="ExitIcon" viewBox="0 0 30 28">
            <title>ExitIcon</title>
            <g>
                <path fill-rule="evenodd" clip-rule="evenodd" d="M9 0C6.79086 0 5 1.79086 5 4V12.963H0V15.037H5V24C5 26.2091 6.79086 28 9 28H26C28.2091 28 30 26.2091 30 24V4C30 1.79086 28.2091 0 26 0H9ZM5 15.037L19.0365 15.037L13.6597 20.5481L15.3188 22L23 14L15.3188 6L13.6597 7.45185L19.0365 12.963L5 12.963V15.037Z"
                      fill="black"/>
            </g>
        </symbol>
        <symbol id="LogoIcon" viewBox="0 0 53 60">
            <title>LogoIcon</title>
            <g>
                <path fill-rule="evenodd" clip-rule="evenodd"
                      d="M32.3277 2.76376C22.0896 -2.99153 8.93388 0.532462 2.94351 10.6348C-3.04686 20.7372 0.396599 33.5923 10.6347 39.3476L13.9334 41.202L13.9334 60L31.3759 60C43.0418 60 52.4988 50.5429 52.4988 38.8771C52.4988 30.9481 48.1301 24.0395 41.6685 20.4271L47.1887 11.1177L32.3277 2.76376ZM41.6685 20.4271C38.6231 18.7245 35.1128 17.7541 31.3759 17.7541L13.9334 17.7541L13.9334 41.202L25.4956 47.7016L41.6685 20.4271Z"
                      fill="#A59DFF"/>
            </g>
        </symbol>
        <symbol id="SearchWorkIcon" viewBox="0 0 60 60">
            <title>SearchWorkIcon</title>
            <g>
                <path fill-rule="evenodd" clip-rule="evenodd" d="M0.00014899 13.8887C0.00014901 13.6569 0.188362 13.4691 0.420082 13.4691C4.93664 13.4691 9.3028 14.1184 13.4298 15.3289L13.4298 46.5306L44.696 46.5306C45.9168 50.6685 46.5721 55.0483 46.5721 59.5808C46.5721 59.8123 46.3844 60 46.1529 60L1.00014 60C0.447861 60 0.000144998 59.5523 0.000145046 59L0.00014899 13.8887ZM44.696 46.5306L60.002 46.5306L60.002 -7.62939e-05L13.4298 -8.03654e-05L13.4298 15.3289C28.4317 19.7288 40.2741 31.5425 44.696 46.5306Z"
                      fill="#A59DFF"/>
            </g>
        </symbol>
        <symbol id="TrainingCircleIcon" viewBox="0 0 60 60">
            <title>TrainingCircleIcon</title>
            <g>
                <path fill-rule="evenodd" clip-rule="evenodd" d="M35.4945 29.9699C35.4945 39.7715 27.5488 47.7172 17.7473 47.7172C17.6743 47.7172 17.6014 47.7167 17.5287 47.7159L17.5287 12.224C17.6014 12.2231 17.6743 12.2227 17.7473 12.2227C27.5488 12.2227 35.4945 20.1684 35.4945 29.9699ZM17.5287 12.224C7.82785 12.3411 -1.73791e-06 20.2414 -1.31266e-06 29.9699C-8.87407e-07 39.6985 7.82785 47.5988 17.5287 47.7159L17.5287 60L29.9999 60C46.5685 60 60 46.5685 60 29.9999C60 13.4313 46.5685 -0.000230917 29.9999 -0.000230193L17.5287 -0.000229648L17.5287 12.224Z"
                      fill="#A59DFF"/>
            </g>
        </symbol>
    </defs>
</svg>